<svg xmlns="http://www.w3.org/2000/svg" viewBox="0 0 1280 720">
  <defs>
    <linearGradient id="titleAccent" x1="0%" y1="0%" x2="100%" y2="0%">
      <stop offset="0%" stop-color="#1565C0"/>
      <stop offset="100%" stop-color="#42A5F5"/>
    </linearGradient>
    <linearGradient id="cardAccent" x1="0%" y1="0%" x2="0%" y2="100%">
      <stop offset="0%" stop-color="#1565C0"/>
      <stop offset="100%" stop-color="#42A5F5"/>
    </linearGradient>
  </defs>

  <rect x="0" y="0" width="1280" height="720" fill="#FFFFFF"/>
  <circle cx="1200" cy="600" r="250" fill="#1565C0" fill-opacity="0.03"/>

  <!--页眉-->
  <rect x="0" y="0" width="1280" height="100" fill="#F4F6F9"/>
  <rect x="0" y="96" width="1280" height="4" fill="url(#titleAccent)"/>
  <text x="60" y="58" font-family="&quot;Microsoft YaHei&quot;, &quot;PingFang SC&quot;, Arial, sans-serif" font-size="36" font-weight="bold" fill="#0D47A1">教育经历</text>
  <text x="60" y="82" font-family="&quot;Microsoft YaHei&quot;, &quot;PingFang SC&quot;, Arial, sans-serif" font-size="15" fill="#616161">Education</text>

  <!--时间线-->
  <line x1="320" y1="190" x2="320" y2="570" stroke="#E0E0E0" stroke-width="2"/>
  <circle cx="320" cy="280" r="12" fill="#1565C0"/>
  <circle cx="320" cy="280" r="20" fill="#1565C0" fill-opacity="0.15"/>

  <!--学校卡片-->
  <rect x="380" y="160" width="760" height="200" rx="16" fill="#FFFFFF" stroke="#E0E0E0" stroke-width="1"/>
  <rect x="380" y="160" width="6" height="200" rx="3" fill="url(#cardAccent)"/>

  <use data-icon="tabler-filled/school" x="420" y="195" width="40" height="40" fill="#1565C0"/>
  <text x="480" y="210" font-family="&quot;Microsoft YaHei&quot;, &quot;PingFang SC&quot;, Arial, sans-serif" font-size="28" font-weight="bold" fill="#212121">广西民族大学</text>
  <text x="480" y="240" font-family="&quot;Microsoft YaHei&quot;, &quot;PingFang SC&quot;, Arial, sans-serif" font-size="20" fill="#1565C0">人工智能专业 | 本科</text>

  <use data-icon="tabler-filled/calendar" x="420" y="275" width="24" height="24" fill="#616161"/>
  <text x="460" y="295" font-family="&quot;Microsoft YaHei&quot;, &quot;PingFang SC&quot;, Arial, sans-serif" font-size="18" fill="#616161">2023.9 ~ 至今 · 大二在读</text>

  <use data-icon="tabler-filled/book" x="420" y="320" width="24" height="24" fill="#616161"/>
  <text x="460" y="340" font-family="&quot;Microsoft YaHei&quot;, &quot;PingFang SC&quot;, Arial, sans-serif" font-size="16" fill="#212121">主修课程</text>

  <!--课程标签-->
  <rect x="420" y="360" width="130" height="34" rx="17" fill="#1565C0" fill-opacity="0.08"/>
  <text x="485" y="384" text-anchor="middle" font-family="&quot;Microsoft YaHei&quot;, &quot;PingFang SC&quot;, Arial, sans-serif" font-size="14" fill="#1565C0">人工智能</text>
  <rect x="565" y="360" width="130" height="34" rx="17" fill="#1565C0" fill-opacity="0.08"/>
  <text x="630" y="384" text-anchor="middle" font-family="&quot;Microsoft YaHei&quot;, &quot;PingFang SC&quot;, Arial, sans-serif" font-size="14" fill="#1565C0">机器学习</text>
  <rect x="710" y="360" width="130" height="34" rx="17" fill="#1565C0" fill-opacity="0.08"/>
  <text x="775" y="384" text-anchor="middle" font-family="&quot;Microsoft YaHei&quot;, &quot;PingFang SC&quot;, Arial, sans-serif" font-size="14" fill="#1565C0">深度学习</text>
  <rect x="855" y="360" width="130" height="34" rx="17" fill="#1565C0" fill-opacity="0.08"/>
  <text x="920" y="384" text-anchor="middle" font-family="&quot;Microsoft YaHei&quot;, &quot;PingFang SC&quot;, Arial, sans-serif" font-size="14" fill="#1565C0">自然语言处理</text>

  <rect x="420" y="405" width="130" height="34" rx="17" fill="#1565C0" fill-opacity="0.08"/>
  <text x="485" y="429" text-anchor="middle" font-family="&quot;Microsoft YaHei&quot;, &quot;PingFang SC&quot;, Arial, sans-serif" font-size="14" fill="#1565C0">计算机视觉</text>
  <rect x="565" y="405" width="130" height="34" rx="17" fill="#1565C0" fill-opacity="0.08"/>
  <text x="630" y="429" text-anchor="middle" font-family="&quot;Microsoft YaHei&quot;, &quot;PingFang SC&quot;, Arial, sans-serif" font-size="14" fill="#1565C0">数据结构与算法</text>
  <rect x="710" y="405" width="130" height="34" rx="17" fill="#1565C0" fill-opacity="0.08"/>
  <text x="775" y="429" text-anchor="middle" font-family="&quot;Microsoft YaHei&quot;, &quot;PingFang SC&quot;, Arial, sans-serif" font-size="14" fill="#1565C0">数据库原理</text>
  <rect x="855" y="405" width="130" height="34" rx="17" fill="#1565C0" fill-opacity="0.08"/>
  <text x="920" y="429" text-anchor="middle" font-family="&quot;Microsoft YaHei&quot;, &quot;PingFang SC&quot;, Arial, sans-serif" font-size="14" fill="#1565C0">操作系统</text>

  <rect x="490" y="450" width="130" height="34" rx="17" fill="#1565C0" fill-opacity="0.08"/>
  <text x="555" y="474" text-anchor="middle" font-family="&quot;Microsoft YaHei&quot;, &quot;PingFang SC&quot;, Arial, sans-serif" font-size="14" fill="#1565C0">计算机网络</text>

  <!--Key Takeaway-->
  <rect x="380" y="510" width="760" height="65" rx="12" fill="#0D47A1" fill-opacity="0.05"/>
  <text x="760" y="540" text-anchor="middle" font-family="&quot;Microsoft YaHei&quot;, &quot;PingFang SC&quot;, Arial, sans-serif" font-size="16" fill="#0D47A1">AI专业背景扎实，课程覆盖AI核心领域，具备从理论到实践的完整知识体系</text>
  <text x="760" y="562" text-anchor="middle" font-family="&quot;Microsoft YaHei&quot;, &quot;PingFang SC&quot;, Arial, sans-serif" font-size="13" fill="#9E9E9E">预计 2027 年毕业</text>

  <!--页脚-->
  <text x="1220" y="700" text-anchor="end" font-family="&quot;Microsoft YaHei&quot;, &quot;PingFang SC&quot;, Arial, sans-serif" font-size="12" fill="#9E9E9E">03 / 13</text>
  <text x="60" y="700" font-family="&quot;Microsoft YaHei&quot;, &quot;PingFang SC&quot;, Arial, sans-serif" font-size="12" fill="#9E9E9E">张锦洋 · 个人简历</text>
</svg>
