<svg xmlns="http://www.w3.org/2000/svg" viewBox="0 0 1280 720">
  <defs>
    <linearGradient id="titleAccent" x1="0%" y1="0%" x2="100%" y2="0%">
      <stop offset="0%" stop-color="#1565C0" />
      <stop offset="100%" stop-color="#42A5F5" />
    </linearGradient>
    <linearGradient id="resultBadge" x1="0%" y1="0%" x2="100%" y2="100%">
      <stop offset="0%" stop-color="#0D47A1" />
      <stop offset="100%" stop-color="#1565C0" />
    </linearGradient>
  </defs>

  <rect x="0" y="0" width="1280" height="720" fill="#FFFFFF" />

  
  <rect x="0" y="0" width="1280" height="100" fill="#F4F6F9" />
  <rect x="0" y="96" width="1280" height="4" fill="url(#titleAccent)" />
  <text x="60" y="58" font-family="&quot;Microsoft YaHei&quot;, &quot;PingFang SC&quot;, Arial, sans-serif" font-size="36" font-weight="bold" fill="#0D47A1">项目经历</text>
  <text x="60" y="82" font-family="&quot;Microsoft YaHei&quot;, &quot;PingFang SC&quot;, Arial, sans-serif" font-size="15" fill="#616161">Projects</text>

  
  
  <g transform="translate(60.0, 130.0) scale(1.6666666666666667)" fill="none" stroke="#1565C0" stroke-width="2">
    <path d="M6 6a2 2 0 0 1 2 -2h8a2 2 0 0 1 2 2v4a2 2 0 0 1 -2 2h-8a2 2 0 0 1 -2 -2l0 -4" />
    <path d="M12 2v2" />
    <path d="M9 12v9" />
    <path d="M15 12v9" />
    <path d="M5 16l4 -2" />
    <path d="M15 14l4 2" />
    <path d="M9 18h6" />
    <path d="M10 8v.01" />
    <path d="M14 8v.01" />
  </g>
  <text x="115" y="150" font-family="&quot;Microsoft YaHei&quot;, &quot;PingFang SC&quot;, Arial, sans-serif" font-size="28" font-weight="bold" fill="#212121">中国机器人及人工智能大赛备赛开发</text>
  <text x="115" y="178" font-family="&quot;Microsoft YaHei&quot;, &quot;PingFang SC&quot;, Arial, sans-serif" font-size="18" fill="#616161">技术负责人 · 2025.3 ~ 2025.8</text>

  
  <path fill="url(#resultBadge)" d="M972,125 H1208 A12,12 0 0 1 1220,137 V173 A12,12 0 0 1 1208,185 H972 A12,12 0 0 1 960,173 V137 A12,12 0 0 1 972,125 Z" />
  
  <g transform="translate(980.0, 142.0) scale(1.1666666666666667)" fill="#FFFFFF">
    <path d="M17 3a1 1 0 0 1 .993 .883l.007 .117v2.17a3 3 0 1 1 0 5.659v.171a6.002 6.002 0 0 1 -5 5.917v2.083h3a1 1 0 0 1 .117 1.993l-.117 .007h-8a1 1 0 0 1 -.117 -1.993l.117 -.007h3v-2.083a6.002 6.002 0 0 1 -4.996 -5.692l-.004 -.225v-.171a3 3 0 0 1 -3.996 -2.653l-.003 -.176l.005 -.176a3 3 0 0 1 3.995 -2.654l-.001 -2.17a1 1 0 0 1 1 -1h10zm-12 5a1 1 0 1 0 0 2a1 1 0 0 0 0 -2m14 0a1 1 0 1 0 0 2a1 1 0 0 0 0 -2" />
  </g>
  <text x="1020" y="155" font-family="&quot;Microsoft YaHei&quot;, &quot;PingFang SC&quot;, Arial, sans-serif" font-size="17" font-weight="bold" fill="#FFFFFF">国家级二等奖</text>
  <text x="1020" y="175" font-family="&quot;Microsoft YaHei&quot;, &quot;PingFang SC&quot;, Arial, sans-serif" font-size="12" fill="#FFFFFF" fill-opacity="0.8">国家级竞赛成果</text>

  
  <line x1="60" y1="200" x2="1220" y2="200" stroke="#E0E0E0" stroke-width="1" />

  
  <path fill="#F4F6F9" d="M72,220 H588 A12,12 0 0 1 600,232 V498 A12,12 0 0 1 588,510 H72 A12,12 0 0 1 60,498 V232 A12,12 0 0 1 72,220 Z" />
  <text x="90" y="255" font-family="&quot;Microsoft YaHei&quot;, &quot;PingFang SC&quot;, Arial, sans-serif" font-size="18" font-weight="bold" fill="#0D47A1">项目描述</text>
  <text x="90" y="285" font-family="&quot;Microsoft YaHei&quot;, &quot;PingFang SC&quot;, Arial, sans-serif" font-size="16" fill="#616161">围绕开鸿机器人进行动作与代码逻辑设计开发，完成机器人多模式运行的功能搭建，保障比赛中各类场景下的任务执行能力。</text>

  <text x="90" y="340" font-family="&quot;Microsoft YaHei&quot;, &quot;PingFang SC&quot;, Arial, sans-serif" font-size="18" font-weight="bold" fill="#0D47A1">个人职责</text>
  <circle cx="95" cy="370" r="4" fill="#1565C0" />
  <text x="110" y="376" font-family="&quot;Microsoft YaHei&quot;, &quot;PingFang SC&quot;, Arial, sans-serif" font-size="15" fill="#212121">负责开鸿机器人各项动作设计，除基础动作外，设计"倒地起身""奔跑"等舵机联动复杂动作，应对比赛突发情况</text>
  <circle cx="95" cy="425" r="4" fill="#1565C0" />
  <text x="110" y="431" font-family="&quot;Microsoft YaHei&quot;, &quot;PingFang SC&quot;, Arial, sans-serif" font-size="15" fill="#212121">主导机器人整体代码逻辑设计，完成"自动模式"下动作行为编排，以及遥控模式下"按键"与代码的逻辑映射</text>

  
  <path fill="#F4F6F9" d="M652,220 H1208 A12,12 0 0 1 1220,232 V498 A12,12 0 0 1 1208,510 H652 A12,12 0 0 1 640,498 V232 A12,12 0 0 1 652,220 Z" />

  <text x="670" y="255" font-family="&quot;Microsoft YaHei&quot;, &quot;PingFang SC&quot;, Arial, sans-serif" font-size="18" font-weight="bold" fill="#0D47A1">技术栈</text>

  <path fill="#FFFFFF" stroke="#E0E0E0" stroke-width="1" d="M678,275 H827 A8,8 0 0 1 835,283 V303 A8,8 0 0 1 827,311 H678 A8,8 0 0 1 670,303 V283 A8,8 0 0 1 678,275 Z" />
  <text x="752" y="300" text-anchor="middle" font-family="&quot;Microsoft YaHei&quot;, &quot;PingFang SC&quot;, Arial, sans-serif" font-size="14" fill="#1565C0">机器人动作设计</text>

  <path fill="#FFFFFF" stroke="#E0E0E0" stroke-width="1" d="M858,275 H1007 A8,8 0 0 1 1015,283 V303 A8,8 0 0 1 1007,311 H858 A8,8 0 0 1 850,303 V283 A8,8 0 0 1 858,275 Z" />
  <text x="932" y="300" text-anchor="middle" font-family="&quot;Microsoft YaHei&quot;, &quot;PingFang SC&quot;, Arial, sans-serif" font-size="14" fill="#1565C0">舵机控制</text>

  <path fill="#FFFFFF" stroke="#E0E0E0" stroke-width="1" d="M1038,275 H1187 A8,8 0 0 1 1195,283 V303 A8,8 0 0 1 1187,311 H1038 A8,8 0 0 1 1030,303 V283 A8,8 0 0 1 1038,275 Z" />
  <text x="1112" y="300" text-anchor="middle" font-family="&quot;Microsoft YaHei&quot;, &quot;PingFang SC&quot;, Arial, sans-serif" font-size="14" fill="#1565C0">代码逻辑开发</text>

  <path fill="#FFFFFF" stroke="#E0E0E0" stroke-width="1" d="M678,325 H827 A8,8 0 0 1 835,333 V353 A8,8 0 0 1 827,361 H678 A8,8 0 0 1 670,353 V333 A8,8 0 0 1 678,325 Z" />
  <text x="752" y="350" text-anchor="middle" font-family="&quot;Microsoft YaHei&quot;, &quot;PingFang SC&quot;, Arial, sans-serif" font-size="14" fill="#1565C0">遥控系统适配</text>

  <path fill="#FFFFFF" stroke="#E0E0E0" stroke-width="1" d="M858,325 H1007 A8,8 0 0 1 1015,333 V353 A8,8 0 0 1 1007,361 H858 A8,8 0 0 1 850,353 V333 A8,8 0 0 1 858,325 Z" />
  <text x="932" y="350" text-anchor="middle" font-family="&quot;Microsoft YaHei&quot;, &quot;PingFang SC&quot;, Arial, sans-serif" font-size="14" fill="#1565C0">自动模式编排</text>

  <path fill="#FFFFFF" stroke="#E0E0E0" stroke-width="1" d="M1038,325 H1187 A8,8 0 0 1 1195,333 V353 A8,8 0 0 1 1187,361 H1038 A8,8 0 0 1 1030,353 V333 A8,8 0 0 1 1038,325 Z" />
  <text x="1112" y="350" text-anchor="middle" font-family="&quot;Microsoft YaHei&quot;, &quot;PingFang SC&quot;, Arial, sans-serif" font-size="14" fill="#1565C0">开鸿机器人</text>

  <text x="670" y="400" font-family="&quot;Microsoft YaHei&quot;, &quot;PingFang SC&quot;, Arial, sans-serif" font-size="18" font-weight="bold" fill="#0D47A1">项目成果</text>
  <text x="670" y="435" font-family="&quot;Microsoft YaHei&quot;, &quot;PingFang SC&quot;, Arial, sans-serif" font-size="16" fill="#2E7D32">带领团队完成机器人开发与调试，最终斩获国家级二等奖。</text>

  
  <path fill="#F4F6F9" d="M70,540 H1210 A10,10 0 0 1 1220,550 V580 A10,10 0 0 1 1210,590 H70 A10,10 0 0 1 60,580 V550 A10,10 0 0 1 70,540 Z" />
  <path fill="#1565C0" d="M93,552 H103 A13,13 0 0 1 116,565 V565 A13,13 0 0 1 103,578 H93 A13,13 0 0 1 80,565 V565 A13,13 0 0 1 93,552 Z" />
  <text x="98" y="571" text-anchor="middle" font-family="&quot;Microsoft YaHei&quot;, &quot;PingFang SC&quot;, Arial, sans-serif" font-size="13" font-weight="bold" fill="#FFFFFF">1</text>
  <circle cx="220" cy="565" r="7" fill="#E0E0E0" />
  <text x="220" y="570" text-anchor="middle" font-family="&quot;Microsoft YaHei&quot;, &quot;PingFang SC&quot;, Arial, sans-serif" font-size="11" fill="#9E9E9E">2</text>
  <circle cx="320" cy="565" r="7" fill="#E0E0E0" />
  <text x="320" y="570" text-anchor="middle" font-family="&quot;Microsoft YaHei&quot;, &quot;PingFang SC&quot;, Arial, sans-serif" font-size="11" fill="#9E9E9E">3</text>
  <circle cx="420" cy="565" r="7" fill="#E0E0E0" />
  <text x="420" y="570" text-anchor="middle" font-family="&quot;Microsoft YaHei&quot;, &quot;PingFang SC&quot;, Arial, sans-serif" font-size="11" fill="#9E9E9E">4</text>

  
  <text x="1220" y="700" text-anchor="end" font-family="&quot;Microsoft YaHei&quot;, &quot;PingFang SC&quot;, Arial, sans-serif" font-size="12" fill="#9E9E9E">05 / 13</text>
  <text x="60" y="700" font-family="&quot;Microsoft YaHei&quot;, &quot;PingFang SC&quot;, Arial, sans-serif" font-size="12" fill="#9E9E9E">张锦洋 · 个人简历</text>
</svg>