<svg xmlns="http://www.w3.org/2000/svg" viewBox="0 0 1280 720">
  <defs>
    <linearGradient id="titleAccent" x1="0%" y1="0%" x2="100%" y2="0%">
      <stop offset="0%" stop-color="#1565C0" />
      <stop offset="100%" stop-color="#42A5F5" />
    </linearGradient>
    <linearGradient id="quoteBg" x1="0%" y1="0%" x2="100%" y2="100%">
      <stop offset="0%" stop-color="#F4F6F9" />
      <stop offset="100%" stop-color="#E3F2FD" />
    </linearGradient>
  </defs>

  <rect x="0" y="0" width="1280" height="720" fill="#FFFFFF" />
  <circle cx="640" cy="360" r="280" fill="#1565C0" fill-opacity="0.03" />

  
  <g id="header">
    <rect x="0" y="0" width="1280" height="100" fill="#F4F6F9" />
    <rect x="0" y="96" width="1280" height="4" fill="url(#titleAccent)" />
    <text x="60" y="58" font-family="&quot;Microsoft YaHei&quot;, &quot;PingFang SC&quot;, Arial, sans-serif" font-size="36" font-weight="bold" fill="#0D47A1">自我评价</text>
    <text x="60" y="82" font-family="&quot;Microsoft YaHei&quot;, &quot;PingFang SC&quot;, Arial, sans-serif" font-size="15" fill="#616161">Self Assessment</text>
  </g>

  
  <text x="120" y="180" font-family="&quot;Microsoft YaHei&quot;, &quot;PingFang SC&quot;, Arial, sans-serif" font-size="80" font-weight="bold" fill="#1565C0" fill-opacity="0.08">"</text>

  
  <g id="eval-1">
    <path fill="#E3F2FD" d="M152,170 H176 A12,12 0 0 1 188,182 V206 A12,12 0 0 1 176,218 H152 A12,12 0 0 1 140,206 V182 A12,12 0 0 1 152,170 Z" />
    <g transform="translate(164, 194) scale(1.3333333333333333)" fill="#1565C0">
      <path d="M12 4l-4 8h-4a1 1 0 0 0 -1 1v5a1 1 0 0 0 1 1h16a1 1 0 0 0 1 -1v-5a1 1 0 0 0 -1 -1h-4l-4 -8z" />
      <path d="M9 12v.01" />
      <path d="M15 12v.01" />
    </g>
    <text x="210" y="200" font-family="&quot;Microsoft YaHei&quot;, &quot;PingFang SC&quot;, Arial, sans-serif" font-size="20" fill="#212121">
      <tspan font-weight="bold" fill="#0D47A1">学习能力强</tspan>
      <tspan>，对人工智能、机器人开发领域充满热情，熟练掌握 Python、C++ 等编程语言，熟悉 Linux、Docker、Git 等开发工具，能快速适应各类开发岗位需求，渴望在实战中积累更多工程经验。</tspan>
    </text>
  </g>

  
  <g id="eval-2">
    <path fill="#E3F2FD" d="M152,310 H176 A12,12 0 0 1 188,322 V346 A12,12 0 0 1 176,358 H152 A12,12 0 0 1 140,346 V322 A12,12 0 0 1 152,310 Z" />
    <g transform="translate(164, 334) scale(1.3333333333333333)" fill="#1565C0">
      <path d="M4 6h16v4h-4l-6 12l-3 -7l-3 2l-2 -4z" />
    </g>
    <text x="210" y="340" font-family="&quot;Microsoft YaHei&quot;, &quot;PingFang SC&quot;, Arial, sans-serif" font-size="20" fill="#212121">
      <tspan font-weight="bold" fill="#0D47A1">AI 专业背景扎实</tspan>
      <tspan>，具备人工智能与计算机专业基础，在硬件开发、模型训练、数据标注、机器人设计等方向拥有丰富实操经验，掌握从方案设计到开发调试的完整流程。</tspan>
    </text>
  </g>

  
  <g id="eval-3">
    <path fill="#E3F2FD" d="M152,450 H176 A12,12 0 0 1 188,462 V486 A12,12 0 0 1 176,498 H152 A12,12 0 0 1 140,486 V462 A12,12 0 0 1 152,450 Z" />
    <g transform="translate(164, 474) scale(1.3333333333333333)" fill="#1565C0">
      <path d="M19.5 13.572l-7.5 7.428l-7.5 -7.428m0 0a5 5 0 1 1 7.5 -6.566a5 5 0 1 1 7.5 6.572" />
    </g>
    <text x="210" y="480" font-family="&quot;Microsoft YaHei&quot;, &quot;PingFang SC&quot;, Arial, sans-serif" font-size="20" fill="#212121">
      <tspan font-weight="bold" fill="#0D47A1">团队协作与项目管理经验丰富</tspan>
      <tspan>，多次担任国家级、省级竞赛技术负责人，带领团队取得多项优异成绩，具备良好的逻辑思维与问题解决能力，能在高压环境下保持细致和高效的工作状态，责任心强且乐于接受新挑战。</tspan>
    </text>
  </g>

  
  <g id="footer">
    <text x="1220" y="700" text-anchor="end" font-family="&quot;Microsoft YaHei&quot;, &quot;PingFang SC&quot;, Arial, sans-serif" font-size="12" fill="#9E9E9E">12 / 13</text>
    <text x="60" y="700" font-family="&quot;Microsoft YaHei&quot;, &quot;PingFang SC&quot;, Arial, sans-serif" font-size="12" fill="#9E9E9E">张锦洋 · 个人简历</text>
  </g>
</svg>